<?xml version="1.0" encoding="UTF-8" standalone="no"?>
<!-- Created with Inkscape (http://www.inkscape.org/) -->

<svg
   xmlns:dc="http://purl.org/dc/elements/1.1/"
   xmlns:cc="http://creativecommons.org/ns#"
   xmlns:rdf="http://www.w3.org/1999/02/22-rdf-syntax-ns#"
   xmlns:svg="http://www.w3.org/2000/svg"
   xmlns="http://www.w3.org/2000/svg"
   xmlns:sodipodi="http://sodipodi.sourceforge.net/DTD/sodipodi-0.dtd"
   xmlns:inkscape="http://www.inkscape.org/namespaces/inkscape"
   width="512"
   height="128"
   viewBox="0 0 744.09449 1052.3622"
   id="svg2"
   version="1.1"
   inkscape:version="0.91 r13725"
   sodipodi:docname="logo.svg"
   inkscape:export-filename="/Users/petervaro/Documents/personal/remote/rainicorn/logo.png"
   inkscape:export-xdpi="90"
   inkscape:export-ydpi="90">
  <defs
     id="defs4" />
  <sodipodi:namedview
     id="base"
     pagecolor="#ffffff"
     bordercolor="#666666"
     borderopacity="1.0"
     inkscape:pageopacity="0.0"
     inkscape:pageshadow="2"
     inkscape:zoom="1.979899"
     inkscape:cx="230.13531"
     inkscape:cy="85.107246"
     inkscape:document-units="px"
     inkscape:current-layer="layer1"
     showgrid="false"
     inkscape:window-width="2560"
     inkscape:window-height="1392"
     inkscape:window-x="1920"
     inkscape:window-y="0"
     inkscape:window-maximized="1" />
  <metadata
     id="metadata7">
    <rdf:RDF>
      <cc:Work
         rdf:about="">
        <dc:format>image/svg+xml</dc:format>
        <dc:type
           rdf:resource="http://purl.org/dc/dcmitype/StillImage" />
        <dc:title></dc:title>
      </cc:Work>
    </rdf:RDF>
  </metadata>
  <g
     inkscape:label="Layer 1"
     inkscape:groupmode="layer"
     id="layer1">
    <g
       id="g4382"
       transform="translate(-9.2648063,-3.2535621)">
      <path
         d="m -1173.6209,398.93414 q 0,25.30918 -18.1911,44.29107 -18.1912,18.98189 -45.0819,18.98189 -25.3092,0 -44.2913,-18.19094 -18.9817,-18.19098 -18.9817,-45.08202 0,0 3.1636,-31.63649 0,-31.63648 -30.0547,-31.63648 -53.782,0 -99.6548,52.20023 l 0,283.93744 q 0,55.36381 63.273,55.36381 l 0,7.90916 -253.0919,0 0,-7.90916 q 63.273,0 63.273,-55.36381 l 0,-284.72834 q 0,-55.36386 -63.273,-55.36386 l 0,-7.90911 158.1822,0 q 7.1181,0 14.2366,12.65459 8.7,13.4455 12.6546,25.30919 l 4.7455,13.4455 q 30.8453,-28.47286 55.3634,-40.33655 31.6368,-15.02731 88.5822,-15.02731 42.7093,0 75.9276,20.5637 33.2187,20.56371 33.2187,58.52749 z"
         style="font-style:normal;font-variant:normal;font-weight:bold;font-stretch:expanded;font-size:180px;line-height:125%;font-family:spinwerad;-inkscape-font-specification:'spinwerad Bold Expanded';letter-spacing:0px;word-spacing:0px;fill:#f87dff;fill-opacity:1;stroke:none;stroke-width:1px;stroke-linecap:butt;stroke-linejoin:miter;stroke-opacity:1"
         id="path3377"
         inkscape:connector-curvature="0" />
      <path
         d="m -683.25577,735.07181 -158.18219,0 q -7.90906,0 -17.40012,-12.6546 -9.49106,-12.65459 -11.0726,-12.65459 -40.33677,29.26372 -98.07321,29.26372 -100.44571,0 -160.95071,-45.08198 -60.5049,-45.08199 -60.5049,-101.23675 0,-56.15476 60.1094,-99.25948 60.1095,-43.10467 161.34621,-43.10467 49.03638,0 94.90922,19.7728 l 0,-19.7728 q 0,-122.5914 -102.81829,-122.5914 -65.64594,0 -125.75494,34.00925 l -4.7455,-7.11825 q 63.2729,-34.80011 130.50044,-34.80011 229.36422,0 229.36422,209.5917 l 0,142.36419 q 0,55.36381 63.27297,55.36381 l 0,7.90916 z m -189.8189,-256.25554 q -45.08185,-20.5637 -94.90922,-20.5637 -58.52741,0 -82.25511,44.29108 -12.6546,21.35461 -12.6546,90.16396 0,83.83667 20.5637,109.14586 24.5186,29.26376 74.34601,29.26376 60.10943,0 96.49122,-30.05467 -1.582,-49.03656 -1.582,-94.11854 l 0,-128.12775 z"
         style="font-style:normal;font-variant:normal;font-weight:bold;font-stretch:expanded;font-size:180px;line-height:125%;font-family:spinwerad;-inkscape-font-specification:'spinwerad Bold Expanded';letter-spacing:0px;word-spacing:0px;fill:#b97dff;fill-opacity:1;stroke:none;stroke-width:1px;stroke-linecap:butt;stroke-linejoin:miter;stroke-opacity:1"
         id="path3379"
         inkscape:connector-curvature="0" />
      <path
         inkscape:connector-curvature="0"
         id="path3406"
         d="m -651.61906,323.79753 158.18219,0 q 31.63671,0 31.63671,63.27297 l 0,284.72834 q 0,55.36381 63.27296,55.36381 l 0,7.90916 -253.09186,0 0,-7.90916 q 63.27296,0 63.27296,-55.36381 l 0,-284.72834 q 0,-55.36386 -63.27296,-55.36386 l 0,-7.90911 z"
         style="font-style:normal;font-variant:normal;font-weight:bold;font-stretch:expanded;font-size:180px;line-height:125%;font-family:spinwerad;-inkscape-font-specification:'spinwerad Bold Expanded';letter-spacing:0px;word-spacing:0px;fill:#7dcaff;fill-opacity:1;stroke:none;stroke-width:1px;stroke-linecap:butt;stroke-linejoin:miter;stroke-opacity:1" />
      <path
         d="m -177.07204,387.0705 0,284.72834 q 0,55.36381 63.27296,55.36381 l 0,7.90916 -253.09186,0 0,-7.90916 q 63.27297,0 63.27297,-55.36381 l 0,-284.72834 q 0,-55.36386 -63.27297,-55.36386 l 0,-7.90911 158.18264,0 q 7.11807,0 17.00462,12.25914 9.88611,12.25909 11.4681,12.25909 42.70931,-28.47281 82.25508,-28.47281 205.63694,0 205.63694,146.31873 l 0,205.63716 q 0,55.36381 63.27297,55.36381 l 0,7.90916 -253.09178,0 0,-7.90916 q 63.27288,0 63.27288,-55.36381 l 0,-197.72805 q 0,-146.31873 -79.09101,-146.31873 -41.12776,0 -80.67309,29.26377 1.58155,14.2364 1.58155,30.05467 z"
         style="font-style:normal;font-variant:normal;font-weight:bold;font-stretch:expanded;font-size:180px;line-height:125%;font-family:spinwerad;-inkscape-font-specification:'spinwerad Bold Expanded';letter-spacing:0px;word-spacing:0px;fill:#7dffab;fill-opacity:1;stroke:none;stroke-width:1px;stroke-linecap:butt;stroke-linejoin:miter;stroke-opacity:1"
         id="path3383"
         inkscape:connector-curvature="0" />
      <path
         inkscape:connector-curvature="0"
         id="path3410"
         d="m 202.56589,323.79753 158.18241,0 q 31.63649,0 31.63649,63.27297 l 0,284.72834 q 0,55.36381 63.27296,55.36381 l 0,7.90916 -253.09186,0 0,-7.90916 q 63.27296,0 63.27296,-55.36381 l 0,-284.72834 q 0,-55.36386 -63.27296,-55.36386 l 0,-7.90911 z"
         style="font-style:normal;font-variant:normal;font-weight:bold;font-stretch:expanded;font-size:180px;line-height:125%;font-family:spinwerad;-inkscape-font-specification:'spinwerad Bold Expanded';letter-spacing:0px;word-spacing:0px;fill:#fff87d;fill-opacity:1;stroke:none;stroke-width:1px;stroke-linecap:butt;stroke-linejoin:miter;stroke-opacity:1" />
      <path
         d="m 692.14049,739.02634 q -106.77313,0 -163.7188,-54.57291 -56.94567,-54.57295 -56.94567,-155.01878 0,-99.65494 57.73657,-155.01875 57.73658,-54.57295 163.71881,-54.57295 34.80011,0 78.69572,14.63186 43.8956,14.63191 77.5094,41.52291 33.6138,26.89099 33.6138,55.36385 0,27.68191 -18.9819,46.26834 -18.9819,18.58644 -45.082,18.58644 -26.891,0 -44.6865,-19.7728 -17.7956,-19.77279 -17.7956,-43.50017 0,-14.2364 8.7001,-31.24103 8.7,-17.00462 8.7,-32.03193 0,-14.23641 -26.4956,-28.07741 -26.49552,-13.84095 -54.17742,-13.84095 -68.01845,0 -83.04576,52.20019 -11.86369,41.91835 -11.86369,149.4824 0,125.75502 11.86369,151.85511 22.14551,49.82747 82.25485,49.82747 58.52753,0 106.77313,-28.47286 48.2456,-28.47281 79.8821,-77.50937 l 6.3273,3.95458 q -32.4274,50.61837 -82.2549,80.27759 -49.8274,29.65917 -110.72763,29.65917 z"
         style="font-style:normal;font-variant:normal;font-weight:bold;font-stretch:expanded;font-size:180px;line-height:125%;font-family:spinwerad;-inkscape-font-specification:'spinwerad Bold Expanded';letter-spacing:0px;word-spacing:0px;fill:#ffca7d;fill-opacity:1;stroke:none;stroke-width:1px;stroke-linecap:butt;stroke-linejoin:miter;stroke-opacity:1"
         id="path3387"
         inkscape:connector-curvature="0" />
      <path
         d="m 1137.424,731.11723 q 60.1093,0 77.5093,-41.91836 17.4001,-42.70921 17.4001,-159.76422 0,-117.05497 -17.4001,-159.76423 -17.4,-41.91836 -77.5093,-41.91836 -68.0185,0 -83.0458,52.20019 -11.8637,41.91835 -11.8637,149.4824 0,107.56404 11.8637,149.48239 15.0273,52.20019 83.0458,52.20019 z m 0,7.90911 q -106.7732,0 -164.50978,-54.57291 -56.9456,-54.57295 -56.9456,-155.01878 0,-99.65494 57.7365,-155.01875 57.73658,-54.57295 163.71888,-54.57295 105.9822,0 163.7188,54.57295 57.7365,55.36381 57.7365,155.01875 0,100.44583 -56.9456,155.01878 -57.7366,54.57291 -164.5097,54.57291 z"
         style="font-style:normal;font-variant:normal;font-weight:bold;font-stretch:expanded;font-size:180px;line-height:125%;font-family:spinwerad;-inkscape-font-specification:'spinwerad Bold Expanded';letter-spacing:0px;word-spacing:0px;fill:#ff8c7d;fill-opacity:1;stroke:none;stroke-width:1px;stroke-linecap:butt;stroke-linejoin:miter;stroke-opacity:1"
         id="path3389"
         inkscape:connector-curvature="0" />
      <path
         d="m 1817.6084,398.93414 q 0,25.30918 -18.191,44.29107 -18.191,18.98189 -45.082,18.98189 -25.3092,0 -44.2911,-18.19094 -18.9819,-18.19098 -18.9819,-45.08202 0,0 3.1637,-31.63649 0,-31.63648 -30.0547,-31.63648 -53.782,0 -99.6549,52.20023 l 0,283.93744 q 0,55.36381 63.273,55.36381 l 0,7.90916 -253.0919,0 0,-7.90916 q 63.273,0 63.273,-55.36381 l 0,-284.72834 q 0,-55.36386 -63.273,-55.36386 l 0,-7.90911 158.1824,0 q 7.1182,0 14.2364,12.65459 8.7,13.4455 12.6546,25.30919 l 4.7455,13.4455 q 30.8455,-28.47286 55.3638,-40.33655 31.6365,-15.02731 88.5822,-15.02731 42.7092,0 75.9275,20.5637 33.2184,20.56371 33.2184,58.52749 z"
         style="font-style:normal;font-variant:normal;font-weight:bold;font-stretch:expanded;font-size:180px;line-height:125%;font-family:spinwerad;-inkscape-font-specification:'spinwerad Bold Expanded';letter-spacing:0px;word-spacing:0px;fill:#ff7db9;fill-opacity:1;stroke:none;stroke-width:1px;stroke-linecap:butt;stroke-linejoin:miter;stroke-opacity:1"
         id="path3391"
         inkscape:connector-curvature="0" />
      <path
         d="m 2031.1546,387.0705 0,284.72834 q 0,55.36381 63.273,55.36381 l 0,7.90916 -253.0919,0 0,-7.90916 q 63.273,0 63.273,-55.36381 l 0,-284.72834 q 0,-55.36386 -63.273,-55.36386 l 0,-7.90911 158.1824,0 q 7.1182,0 17.0046,12.25914 9.8864,12.25909 11.4683,12.25909 42.7092,-28.47281 82.2548,-28.47281 205.6371,0 205.6371,146.31873 l 0,205.63716 q 0,55.36381 63.273,55.36381 l 0,7.90916 -253.0919,0 0,-7.90916 q 63.273,0 63.273,-55.36381 l 0,-197.72805 q 0,-146.31873 -79.0912,-146.31873 -41.1274,0 -80.673,29.26377 1.5818,14.2364 1.5818,30.05467 z"
         style="font-style:normal;font-variant:normal;font-weight:bold;font-stretch:expanded;font-size:180px;line-height:125%;font-family:spinwerad;-inkscape-font-specification:'spinwerad Bold Expanded';letter-spacing:0px;word-spacing:0px;fill:#f87dff;fill-opacity:1;stroke:none;stroke-width:1px;stroke-linecap:butt;stroke-linejoin:miter;stroke-opacity:1"
         id="path3393"
         inkscape:connector-curvature="0" />
    </g>
  </g>
</svg>
